<mxfile host="app.diagrams.net" modified="2024-05-03T08:54:42.822Z" agent="Mozilla/5.0 (X11; Linux x86_64; rv:125.0) Gecko/20100101 Firefox/125.0" version="24.3.1" etag="NSfrOAL3dUokD2M3FM1x" type="github">
  <diagram name="Page-1" id="CfPEMdqN1ExGXsXJz8y4">
    <mxGraphModel>
      <root>
        <mxCell id="0" />
        <mxCell id="1" parent="0" />
      </root>
    </mxGraphModel>
  </diagram>
</mxfile>
